<svg width="72" height="72" viewBox="0 0 72 72" fill="none" xmlns="http://www.w3.org/2000/svg">
<circle cx="36" cy="36" r="36" fill="#276EF1"/>
<path d="M45.3938 33.5522L38.1961 31.6119L29.6481 24H22V28.4776H27.8483L35.7966 35.791L44.0443 38.0298C45.0941 38.3283 45.9935 39.3731 45.9935 40.5671V45.0447H38.046C37.1462 42.5074 34.5966 40.5671 31.7474 40.5671C28.8981 40.5671 26.3493 42.5074 25.4495 45.0447H22V49.5223H25.4495C26.3493 52.0596 28.8981 53.9998 31.7474 53.9998C34.5966 53.9998 37.1462 52.0596 38.046 49.5223H50.4923V40.5671C50.6423 37.1343 48.543 34.2984 45.3938 33.5522ZM31.8975 49.2237C30.6978 49.2237 29.6481 48.179 29.6481 46.9849C29.6481 45.7909 30.6978 44.7461 31.8975 44.7461C33.0972 44.7461 34.1469 45.7909 34.1469 46.9849C34.1469 48.179 33.0972 49.2237 31.8975 49.2237Z" fill="white"/>
<path d="M46.9001 30.3L40.75 24.15L43.9001 21L46.9001 23.85L52.7499 18L55.9001 21.15L46.9001 30.3Z" fill="white"/>
</svg>
