<svg width="72" height="72" viewBox="0 0 72 72" fill="none" xmlns="http://www.w3.org/2000/svg">
<circle cx="36" cy="36" r="36" fill="#276EF1"/>
<path d="M45.9091 18H26.2727C24.4727 18 23 19.4727 23 21.2727V50.7273C23 52.5273 24.4727 54 26.2727 54H45.9091C47.7091 54 49.1818 52.5273 49.1818 50.7273V21.2727C49.1818 19.4727 47.7091 18 45.9091 18ZM36.0909 51.5455C34.7818 51.5455 33.6364 50.4 33.6364 49.0909C33.6364 47.7818 34.7818 46.6364 36.0909 46.6364C37.4 46.6364 38.5455 47.7818 38.5455 49.0909C38.5455 50.4 37.4 51.5455 36.0909 51.5455ZM44.2727 44.1818H27.9091V22.9091H44.2727V44.1818Z" fill="white"/>
</svg>
