<svg width="72" height="72" viewBox="0 0 72 72" fill="none" xmlns="http://www.w3.org/2000/svg">
<circle cx="36" cy="36" r="36" fill="#276EF1"/>
<path d="M32.09 17C27.5082 17 23.9082 20.6 23.9082 25.1818C23.9082 29.7636 27.5082 33.3636 32.09 33.3636C36.6718 33.3636 40.2718 29.7636 40.2718 25.1818C40.2718 20.6 36.6718 17 32.09 17ZM32.09 28.4545C30.29 28.4545 28.8173 26.9818 28.8173 25.1818C28.8173 23.3818 30.29 21.9091 32.09 21.9091C33.89 21.9091 35.3627 23.3818 35.3627 25.1818C35.3627 26.9818 33.89 28.4545 32.09 28.4545Z" fill="white"/>
<path d="M19 46.4544V52.9999H23.9091V46.4544C23.9091 43.6726 26.0364 41.5453 28.8182 41.5453H35.3636V36.6362H28.8182C23.4182 36.6362 19 41.0544 19 46.4544Z" fill="white"/>
<path d="M38.6367 36.6362V52.9999L41.9094 49.7271H55.0004V36.6362H38.6367Z" fill="white"/>
</svg>
